<svg width="32" height="32" viewBox="0 0 32 32" fill="none" xmlns="http://www.w3.org/2000/svg">
    <path d="M25.862 21.7824C25.4915 16.6963 24.1288 12.9331 21.8701 10.0946V6.52344C25.963 7.87128 28.7587 15.9995 25.862 21.7824Z" fill="url(#paint0_linear_4298_8106)"/>
    <path d="M6.13864 10.2166C6.50915 15.3027 7.87181 19.0659 10.1305 21.9044L10.1305 25.4755C6.03759 24.1277 3.24189 15.9994 6.13864 10.2166Z" fill="url(#paint1_linear_4298_8106)"/>
    <path d="M32.0006 15.9997C32.0006 22.7331 27.8413 28.4953 21.9514 30.8571C21.9128 30.8725 21.8705 30.8438 21.8705 30.8023V10.0948C24.4186 12.5563 26.0221 15.9823 26.1002 19.77C26.1018 19.8457 26.2106 19.8555 26.2264 19.7814C27.2993 14.7598 25.4926 9.74317 21.8705 6.52362C20.2688 5.09944 18.3115 4.0274 16.0905 3.46131C14.7486 3.11941 13.4018 2.98557 12.0853 3.04067C12.0026 3.04414 11.9336 2.97873 11.9336 2.89595V0.634592C11.9336 0.568113 11.9785 0.509707 12.043 0.493302C13.3087 0.170983 14.634 0 16.0003 0C18.0727 0 20.0531 0.393777 21.8705 1.11079C27.8032 3.45205 32.0006 9.23554 32.0006 15.9997Z" fill="url(#paint2_linear_4298_8106)"/>
    <path d="M20.067 29.1033V31.3647C20.067 31.4311 20.0221 31.4896 19.9576 31.506C18.6919 31.8283 17.3666 31.9993 16.0003 31.9993C13.9279 31.9993 11.9475 31.6055 10.1301 30.8885C4.19738 28.5472 0 22.7637 0 15.9995C0 9.26613 4.15929 3.50394 10.0492 1.14219C10.0878 1.12672 10.1301 1.1554 10.1301 1.19699V21.9045C7.58199 19.443 5.97848 16.0169 5.90035 12.2292C5.89879 12.1535 5.79001 12.1438 5.77419 12.2178C4.70125 17.2395 6.50793 22.2561 10.1301 25.4756C11.7318 26.8998 13.6891 27.9719 15.9101 28.538C17.252 28.8799 18.5988 29.0137 19.9153 28.9586C19.998 28.9551 20.067 29.0205 20.067 29.1033Z" fill="url(#paint3_linear_4298_8106)"/>
    <defs>
        <linearGradient id="paint0_linear_4298_8106" x1="24.4617" y1="0.131332" x2="24.4617" y2="31.6169" gradientUnits="userSpaceOnUse">
            <stop offset="0.156425" stop-color="#4B4B4B"/>
            <stop offset="1" stop-color="#2B2B2B"/>
        </linearGradient>
        <linearGradient id="paint1_linear_4298_8106" x1="7.53889" y1="0.13125" x2="7.53889" y2="31.6168" gradientUnits="userSpaceOnUse">
            <stop offset="0.156425" stop-color="#4B4B4B"/>
            <stop offset="1" stop-color="#2B2B2B"/>
        </linearGradient>
        <linearGradient id="paint2_linear_4298_8106" x1="21.9671" y1="-0.0745134" x2="21.9671" y2="31.2254" gradientUnits="userSpaceOnUse">
            <stop offset="0.106145" stop-color="#818181"/>
            <stop offset="0.37144" stop-color="#6D6D6D"/>
            <stop offset="0.756831" stop-color="#565656"/>
            <stop offset="1" stop-color="#4E4E4E"/>
        </linearGradient>
        <linearGradient id="paint3_linear_4298_8106" x1="10.0335" y1="-0.0746804" x2="10.0335" y2="31.2252" gradientUnits="userSpaceOnUse">
            <stop offset="0.106145" stop-color="#818181"/>
            <stop offset="0.37144" stop-color="#6D6D6D"/>
            <stop offset="0.756831" stop-color="#565656"/>
            <stop offset="1" stop-color="#4E4E4E"/>
        </linearGradient>
    </defs>
</svg>
